{"title":"Charlie Puth ft. Meghan Trainor - Marvin Gaye (2015.Pop)","uid":12404862,"size":84849840,"categoryP":"video","categoryS":"music_videos","magnet":"?xt=urn:btih:1ade75441a4623361e88279f8091c150f479d281&amp;dn=Charlie+Puth+ft.+Meghan+Trainor+-+Marvin+Gaye+%282015.Pop%29&amp;tr=udp%3A%2F%2Ftracker.openbittorrent.com%3A80&amp;tr=udp%3A%2F%2Fopen.demonii.com%3A1337&amp;tr=udp%3A%2F%2Ftracker.coppersurfer.tk%3A6969&amp;tr=udp%3A%2F%2Fexodus.desync.com%3A6969","seeders":46,"leechers":1,"uploader":"MeRaDil","files":1,"time":1442079160,"description":"CHARLIE PUTH ft.MEGHAN TRAINOR - MARVIN GAYE\n\n &lt;a href=&quot;\nhttp://gifyu.com/images/charlie-1.png&quot; rel=&quot;nofollow&quot; target=&quot;_NEW&quot;&gt;\nhttp://gifyu.com/images/charlie-1.png&lt;/a&gt;\n\n\nGeneral\nCharlie Puth ft. Meghan Trainor - Marvin Gaye\nFormat                                   : MPEG-4\nFormat profile                           : Base Media\nCodec ID                                 : isom\nFile size                                : 80.9 MiB\nDuration                                 : 3mn 19s\nOverall bit rate                         : 3 407 Kbps\nMusicVid name                            : Marvin Gaye\nPerformer                                : Charlie Puth ft. Meghan Trainor\nGenre                                    : Pop/RnB\nContentType                              : Music Video\nRecorded date                            : 2015\nMake                                     : MeRaDil\nRelease date                             : USA - april 1 - 2015\nPart_ID                                  : Marvin Gaye\n &lt;a href=&quot;\nhttps://thepiratebay.gd/user/MeRaDil&quot; rel=&quot;nofollow&quot; target=&quot;_NEW&quot;&gt;\nhttps://thepiratebay.gd/user/MeRaDil&lt;/a&gt;\n\nVideo\nID                                       : 1\nFormat                                   : AVC\nFormat/Info                              : Advanced Video Codec\nFormat profile                           : &lt;a class=&quot;__cf_email__&quot; href=&quot;/cdn-cgi/l/email-protection&quot; data-cfemail=&quot;de96b7b9b69e92eaf0ee&quot;&gt;[email&amp;#160;protected]&lt;/a&gt;&lt;script data-cfhash='f9e31' type=&quot;text/javascript&quot;&gt;\n/* &lt;![CDATA[ */!function(){try{var t=&quot;currentScript&quot;in document?document.currentScript:function(){for(var t=document.getElementsByTagName(&quot;script&quot;),e=t.length;e--;)if(t[e].getAttribute(&quot;data-cfhash&quot;))return t[e]}();if(t&amp;&amp;t.previousSibling){var e,r,n,i,c=t.previousSibling,a=c.getAttribute(&quot;data-cfemail&quot;);if(a){for(e=&quot;&quot;,r=parseInt(a.substr(0,2),16),n=2;a.length-n;n+=2)i=parseInt(a.substr(n,2),16)^r,e+=String.fromCharCode(i);e=document.createTextNode(e),c.parentNode.replaceChild(e,c)}t.parentNode.removeChild(t);}}catch(u){}}()/* ]]&gt; */&lt;/script&gt;\nFormat settings, CABAC                   : Yes\nFormat settings, ReFrames                : 3 frames\nCodec ID                                 : avc1\nCodec ID/Info                            : Advanced Video Coding\nDuration                                 : 3mn 19s\nBit rate                                 : 3 135 Kbps\nWidth                                    : 1 920 pixels\nHeight                                   : 1 080 pixels\nDisplay aspect ratio                     : 16:9\nFrame rate mode                          : Variable\nFrame rate                               : 23.976 fps\nMinimum frame rate                       : 23.974 fps\nMaximum frame rate                       : 23.981 fps\nColor space                              : YUV\nChroma subsampling                       : 4:2:0\nBit depth                                : 8 bits\nScan type                                : Progressive\nBits/(Pixel*Frame)                       : 0.063\nStream size                              : 74.5 MiB (92%)\n\nAudio\nID                                       : 2\nFormat                                   : AAC\nFormat/Info                              : Advanced Audio Codec\nFormat profile                           : LC\nCodec ID                                 : 40\nDuration                                 : 3mn 19s\nBit rate mode                            : Constant\nBit rate                                 : 256 Kbps\nChannel(s)                               : 2 channels\nChannel positions                        : Front: L R\nSampling rate                            : 44.1 KHz\nCompression mode                         : Lossy\nStream size                              : 6.08 MiB (8%)\n\nCharlie Puth * Meghan Trainor * Pop/RnB * Promo","torrent":{"xt":"urn:btih:1ade75441a4623361e88279f8091c150f479d281","amp;dn":"Charlie+Puth+ft.+Meghan+Trainor+-+Marvin+Gaye+%282015.Pop%29","amp;tr":["udp%3A%2F%2Ftracker.openbittorrent.com%3A80","udp%3A%2F%2Fopen.demonii.com%3A1337","udp%3A%2F%2Ftracker.coppersurfer.tk%3A6969","udp%3A%2F%2Fexodus.desync.com%3A6969"],"infoHash":"1ade75441a4623361e88279f8091c150f479d281","infoHashBuffer":{"type":"Buffer","data":[26,222,117,68,26,70,35,54,30,136,39,159,128,145,193,80,244,121,210,129]},"announce":[],"urlList":[]}}